<?xml version="1.0" standalone="no"?>
<!DOCTYPE svg PUBLIC "-//W3C//DTD SVG 20010904//EN"
 "http://www.w3.org/TR/2001/REC-SVG-20010904/DTD/svg10.dtd">
<svg version="1.0" xmlns="http://www.w3.org/2000/svg"
 width="269.000000pt" height="269.000000pt" viewBox="0 0 269.000000 269.000000"
 preserveAspectRatio="xMidYMid meet">
<metadata>
Created by potrace 1.11, written by Peter Selinger 2001-2013
</metadata>
<g transform="translate(0.000000,269.000000) scale(0.100000,-0.100000)"
fill="#000000" stroke="none">
<path d="M237 2582 c-18 -4 -82 -186 -72 -203 4 -5 3 -9 -2 -9 -9 0 -11 -21
-13 -150 -2 -102 3 -134 37 -220 56 -143 193 -309 353 -428 41 -31 77 -59 80
-62 8 -9 162 -109 299 -195 234 -146 316 -209 333 -255 6 -19 12 -37 11 -40 0
-3 -4 -34 -7 -70 -3 -36 -10 -81 -15 -100 -27 -117 15 -232 127 -350 36 -38
70 -70 74 -70 5 0 -3 17 -16 38 -78 124 -127 260 -120 332 8 69 42 121 45 68
1 -13 2 -27 3 -33 13 -80 24 -114 63 -192 70 -145 157 -214 328 -263 128 -37
172 -64 271 -165 l92 -93 286 1 286 0 1 41 c0 52 0 2398 0 2411 -1 9 -2398 16
-2444 7z m2168 -1537 c-2 -11 -6 -28 -10 -38 -8 -19 26 -55 78 -83 15 -8 27
-16 27 -18 0 -8 -53 4 -68 16 -11 9 -9 3 5 -18 12 -17 28 -36 36 -42 7 -6 24
-35 38 -64 13 -29 26 -55 30 -58 3 -3 25 -31 48 -64 42 -56 43 -61 38 -114 -7
-62 -11 -69 -54 -81 -28 -8 -35 -4 -100 58 l-70 67 36 17 c35 16 35 17 6 12
-16 -3 -62 -8 -100 -11 l-71 -7 -32 37 c-37 42 -42 86 -18 154 l15 41 -27 -10
c-36 -14 -69 -45 -97 -94 -25 -42 -58 -115 -52 -115 2 0 26 34 53 75 27 41 53
76 59 79 16 6 9 -102 -9 -128 -23 -37 -38 -108 -34 -165 3 -28 3 -51 1 -51 -1
0 -12 18 -22 39 -19 36 -105 121 -124 121 -4 0 10 -24 32 -52 41 -56 86 -138
75 -138 -4 0 -1 -7 6 -15 7 -8 10 -15 7 -15 -3 0 0 -21 7 -47 7 -27 13 -70 14
-98 l1 -50 -19 53 c-59 164 -187 299 -360 379 -36 17 -71 32 -79 35 -11 3 -3
15 25 41 152 141 299 226 459 263 l60 14 -70 -4 c-38 -3 -98 -15 -132 -26 -79
-27 -259 -140 -327 -206 -27 -26 -62 -41 -79 -35 -15 5 -9 13 35 45 36 26 45
36 28 32 -68 -18 -86 -18 -100 -1 -12 14 -12 16 1 14 16 -4 199 62 199 72 0 3
-29 4 -64 2 -60 -5 -136 9 -136 25 0 4 35 6 77 5 69 -1 261 31 276 47 3 3 -27
3 -66 2 -76 -4 -137 9 -157 33 -10 12 -7 13 17 6 16 -5 72 -7 124 -4 52 2 115
5 142 6 47 1 69 17 23 17 -32 0 -93 27 -120 52 -20 20 -20 21 -1 13 24 -9 80
-25 109 -31 24 -6 124 -13 239 -17 l78 -3 37 53 37 53 12 -28 c6 -15 10 -36 8
-47z"/>
<path d="M2427 823 c-12 -12 -7 -20 19 -32 33 -15 39 -9 22 18 -13 21 -29 27
-41 14z"/>
<path d="M41 2042 c-32 -61 -33 -237 -2 -330 68 -199 268 -380 562 -506 86
-37 243 -67 374 -71 l130 -5 -95 26 c-52 15 -109 32 -127 40 -17 8 -33 14 -36
14 -20 0 -168 78 -244 129 -223 149 -452 442 -536 687 -13 37 -14 38 -26 16z"/>
<path d="M100 1398 c0 -56 62 -197 107 -244 66 -69 242 -149 373 -170 14 -2
63 -10 110 -18 98 -15 308 -14 360 3 20 6 44 16 53 23 15 11 12 13 -25 14 -46
1 -164 12 -213 20 -164 27 -415 124 -538 208 -21 14 -42 26 -47 26 -4 0 -10 3
-12 8 -1 4 -21 20 -43 37 -22 16 -59 47 -82 69 -26 23 -43 33 -43 24z"/>
<path d="M230 988 c0 -2 9 -28 21 -58 20 -55 67 -123 101 -148 9 -7 23 -18 30
-25 16 -15 84 -46 118 -53 64 -13 118 -20 150 -19 69 3 186 17 250 30 78 16
210 64 210 75 0 5 9 11 19 15 11 3 21 12 24 19 4 9 -17 7 -82 -7 -105 -24
-359 -29 -431 -8 -25 7 -52 15 -60 16 -60 13 -203 75 -275 120 -70 43 -75 46
-75 43z"/>
<path d="M1190 683 c0 -18 -135 -82 -213 -103 -100 -25 -187 -34 -339 -34
l-127 0 20 -22 c36 -39 113 -65 192 -66 171 -3 307 37 388 114 46 43 94 107
85 115 -3 3 -6 2 -6 -4z"/>
<path d="M1195 507 c-81 -83 -215 -147 -312 -150 -31 -1 -29 -13 5 -23 52 -15
144 -13 181 4 54 25 113 76 142 122 14 23 52 111 46 109 -1 0 -29 -29 -62 -62z"/>
<path d="M1310 441 c0 -19 -102 -120 -143 -141 l-42 -22 49 6 c61 7 105 32
128 72 20 34 30 94 17 94 -5 0 -9 -4 -9 -9z"/>
</g>
</svg>
